<svg width="25" height="24" viewBox="0 0 25 24" fill="none" xmlns="http://www.w3.org/2000/svg">
<path d="M10.5263 1.93321V7.94806C10.5266 8.07948 10.4927 8.20879 10.4277 8.3238C10.3628 8.4388 10.269 8.53571 10.1553 8.60536L0.371053 14.5944C0.257658 14.6639 0.164122 14.7603 0.0992207 14.8749C0.0343191 14.9894 0.000178055 15.1182 1.29516e-09 15.2491V16.4091C-6.8737e-06 16.5266 0.0273568 16.6427 0.0800105 16.7483C0.132664 16.854 0.209221 16.9465 0.30386 17.0188C0.398499 17.0911 0.508728 17.1414 0.626165 17.1657C0.743601 17.19 0.865154 17.1878 0.981579 17.1592L9.54474 15.061C9.66116 15.0324 9.78271 15.0301 9.90015 15.0545C10.0176 15.0788 10.1278 15.129 10.2225 15.2013C10.3171 15.2737 10.3937 15.3662 10.4463 15.4718C10.499 15.5775 10.5263 15.6935 10.5263 15.8111V19.6259C10.5262 19.736 10.5021 19.8449 10.4556 19.9451C10.409 20.0453 10.3412 20.1347 10.2566 20.2072L7.41447 22.643C6.81184 23.1611 7.28684 24.1264 8.075 23.986L12.3592 23.2243C12.4523 23.2078 12.5477 23.2078 12.6408 23.2243L16.925 23.986C17.7132 24.1277 18.1882 23.1611 17.5855 22.6443L14.7434 20.2085C14.6586 20.1358 14.5907 20.0463 14.5442 19.9458C14.4977 19.8453 14.4736 19.7363 14.4737 19.6259V15.8111C14.4737 15.6936 14.5011 15.5778 14.5537 15.4722C14.6062 15.3667 14.6827 15.2743 14.7771 15.202C14.8716 15.1297 14.9817 15.0794 15.0989 15.055C15.2162 15.0306 15.3376 15.0326 15.4539 15.061L24.0197 17.1592C24.1361 17.1875 24.2575 17.1896 24.3748 17.1652C24.492 17.1407 24.6021 17.0905 24.6965 17.0182C24.791 16.9459 24.8674 16.8535 24.92 16.7479C24.9726 16.6424 25 16.5265 25 16.4091V15.2491C24.9998 15.1182 24.9657 14.9894 24.9008 14.8749C24.8359 14.7603 24.7423 14.6639 24.6289 14.5944L14.8447 8.60407C14.7312 8.53453 14.6375 8.43784 14.5726 8.32307C14.5077 8.20831 14.4736 8.07926 14.4737 7.94806V1.93321C14.4737 1.42049 14.2657 0.928771 13.8956 0.566224C13.5255 0.203677 13.0235 0 12.5 0C11.9765 0 11.4745 0.203677 11.1044 0.566224C10.7343 0.928771 10.5263 1.42049 10.5263 1.93321Z" fill="#AEA740"/>
</svg>
