<svg width="26" height="15" viewBox="0 0 26 15" fill="none" xmlns="http://www.w3.org/2000/svg">
<path d="M12.9881 14.9962C12.7561 14.9976 12.5261 14.9524 12.3114 14.8632C12.0966 14.7741 11.9012 14.6427 11.7365 14.4767L1.15908 3.72718C0.827119 3.38982 0.640625 2.93226 0.640625 2.45516C0.640625 1.97806 0.827119 1.5205 1.15908 1.18314C1.49104 0.845778 1.94128 0.65625 2.41074 0.65625C2.8802 0.65625 3.33044 0.845778 3.6624 1.18314L12.9881 10.6785L22.3139 1.20105C22.6511 0.907547 23.0849 0.754176 23.5286 0.771592C23.9723 0.789008 24.3932 0.975929 24.7071 1.295C25.0211 1.61407 25.205 2.04179 25.2222 2.49269C25.2393 2.94359 25.0884 3.38445 24.7996 3.72718L14.2222 14.4767C13.8938 14.8076 13.4506 14.9942 12.9881 14.9962Z" fill="#969696"/>
</svg>
