<svg width="23" height="23" viewBox="0 0 23 23" fill="none" xmlns="http://www.w3.org/2000/svg">
<path d="M19.1364 3.38219H18.0286V1.16646C18.0286 0.872635 17.9119 0.590845 17.7041 0.38308C17.4963 0.175315 17.2145 0.0585938 16.9207 0.0585938C16.6269 0.0585938 16.3451 0.175315 16.1373 0.38308C15.9296 0.590845 15.8128 0.872635 15.8128 1.16646V3.38219H6.94993V1.16646C6.94993 0.872635 6.8332 0.590845 6.62544 0.38308C6.41767 0.175315 6.13588 0.0585938 5.84206 0.0585938C5.54824 0.0585938 5.26645 0.175315 5.05868 0.38308C4.85092 0.590845 4.7342 0.872635 4.7342 1.16646V3.38219H3.62633C2.74486 3.38219 1.89949 3.73235 1.27619 4.35565C0.652898 4.97894 0.302734 5.82431 0.302734 6.70578V7.81365H22.46V6.70578C22.46 5.82431 22.1099 4.97894 21.4866 4.35565C20.8633 3.73235 20.0179 3.38219 19.1364 3.38219Z" fill="#47645D"/>
<path d="M0.302734 18.8925C0.302734 19.7739 0.652898 20.6193 1.27619 21.2426C1.89949 21.8659 2.74486 22.2161 3.62633 22.2161H19.1364C20.0179 22.2161 20.8633 21.8659 21.4866 21.2426C22.1099 20.6193 22.46 19.7739 22.46 18.8925V10.0295H0.302734V18.8925Z" fill="#47645D"/>
</svg>
