<svg width="46" height="58" viewBox="0 0 46 58" fill="none" xmlns="http://www.w3.org/2000/svg">
<path d="M35.6454 25.4266C30.2828 25.4266 25.9192 29.8309 25.9192 35.2436C25.9192 40.6564 30.2828 45.0607 35.6454 45.0607C41.0081 45.0607 45.3717 40.6564 45.3717 35.2436C45.3717 29.8309 41.0081 25.4266 35.6454 25.4266ZM39.7691 33.6684C36.9418 37.9497 37.7435 36.7359 36.2323 39.0232C35.6895 39.8449 34.5906 40.0629 33.7798 39.5174L31.1272 37.7325C30.3148 37.1858 30.096 36.0781 30.6375 35.257C31.1791 34.4371 32.2766 34.2162 33.0901 34.7628L34.2705 35.5571C37.0909 31.2877 36.9393 31.4058 37.4138 31.1327C39.0245 30.1923 40.8042 32.0993 39.7691 33.6684ZM27.6876 45.9464V55.7702C27.6876 57.1377 29.1552 57.9996 30.3336 57.3197L35.6454 54.2563L40.9573 57.3197C42.131 57.9986 43.6033 57.1415 43.6033 55.7702V45.9464C38.8918 49.5243 32.4058 49.5294 27.6876 45.9464ZM39.1823 22.3409V4.31436C39.1823 2.17692 37.4592 0.437744 35.3415 0.437744H4.1181C2.00043 0.437744 0.277344 2.17692 0.277344 4.31436V45.6463C0.277344 47.7838 2.00043 49.523 4.1181 49.523H24.1508C24.1508 41.8419 24.139 42.3174 24.1784 41.9638C18.2585 31.7199 27.6851 19.1182 39.1823 22.3409ZM10.8878 9.36233H25.9192C26.8963 9.36233 27.6876 10.1611 27.6876 11.1472C27.6876 12.1334 26.8963 12.9322 25.9192 12.9322H10.8878C9.91073 12.9322 9.11937 12.1334 9.11937 11.1472C9.11937 10.1611 9.91073 9.36233 10.8878 9.36233ZM19.7298 27.2115H10.8878C9.91073 27.2115 9.11937 26.4127 9.11937 25.4266C9.11937 24.4404 9.91073 23.6417 10.8878 23.6417H19.7298C20.7068 23.6417 21.4982 24.4404 21.4982 25.4266C21.4982 26.4127 20.7068 27.2115 19.7298 27.2115ZM10.8878 20.0718C9.91073 20.0718 9.11937 19.2731 9.11937 18.2869C9.11937 17.3007 9.91073 16.502 10.8878 16.502H25.9192C26.8963 16.502 27.6876 17.3007 27.6876 18.2869C27.6876 19.2731 26.8963 20.0718 25.9192 20.0718H10.8878Z" fill="#345F72"/>
</svg>
