<svg width="56" height="56" viewBox="0 0 56 56" fill="none" xmlns="http://www.w3.org/2000/svg">
<circle cx="28" cy="28" r="28" fill="#A8A43C" fill-opacity="0.2"/>
<path d="M32.7936 21.9286C32.0584 21.9277 31.3535 21.6353 30.8336 21.1154C30.3138 20.5955 30.0213 19.8907 30.0204 19.1554V15.2729H20.5916C19.8561 15.2729 19.1507 15.5651 18.6306 16.0852C18.1105 16.6053 17.8184 17.3106 17.8184 18.0461V36.9039C17.8184 37.6394 18.1105 38.3448 18.6306 38.8648C19.1507 39.3849 19.8561 39.6771 20.5916 39.6771H31.6843C30.6929 39.6781 29.7192 39.4134 28.8648 38.9104C28.0104 38.4074 27.3064 37.6846 26.8261 36.8172C26.3459 35.9498 26.1069 34.9695 26.1342 33.9784C26.1614 32.9873 26.4538 32.0216 26.981 31.1818C27.5081 30.3421 28.2507 29.659 29.1315 29.2037C30.0122 28.7484 30.9989 28.5375 31.9889 28.593C32.9788 28.6485 33.9357 28.9683 34.7601 29.5192C35.5845 30.07 36.2461 30.8318 36.6761 31.7252V21.9286H32.7936ZM21.7008 20.2647H27.8019C27.949 20.2647 28.09 20.3231 28.1941 20.4272C28.2981 20.5312 28.3565 20.6722 28.3565 20.8193C28.3565 20.9664 28.2981 21.1075 28.1941 21.2115C28.09 21.3155 27.949 21.374 27.8019 21.374H21.7008C21.5537 21.374 21.4127 21.3155 21.3086 21.2115C21.2046 21.1075 21.1462 20.9664 21.1462 20.8193C21.1462 20.6722 21.2046 20.5312 21.3086 20.4272C21.4127 20.3231 21.5537 20.2647 21.7008 20.2647ZM24.474 35.7946H21.7008C21.5537 35.7946 21.4127 35.7362 21.3086 35.6322C21.2046 35.5281 21.1462 35.3871 21.1462 35.24C21.1462 35.0929 21.2046 34.9518 21.3086 34.8478C21.4127 34.7438 21.5537 34.6853 21.7008 34.6853H24.474C24.6211 34.6853 24.7622 34.7438 24.8662 34.8478C24.9702 34.9518 25.0287 35.0929 25.0287 35.24C25.0287 35.3871 24.9702 35.5281 24.8662 35.6322C24.7622 35.7362 24.6211 35.7946 24.474 35.7946ZM21.1462 32.4668C21.1462 32.3197 21.2046 32.1786 21.3086 32.0746C21.4127 31.9706 21.5537 31.9121 21.7008 31.9121H23.9194C24.0665 31.9121 24.2076 31.9706 24.3116 32.0746C24.4156 32.1786 24.474 32.3197 24.474 32.4668C24.474 32.6139 24.4156 32.7549 24.3116 32.859C24.2076 32.963 24.0665 33.0214 23.9194 33.0214H21.7008C21.5537 33.0214 21.4127 32.963 21.3086 32.859C21.2046 32.7549 21.1462 32.6139 21.1462 32.4668ZM25.0287 30.2482H21.7008C21.5537 30.2482 21.4127 30.1898 21.3086 30.0858C21.2046 29.9817 21.1462 29.8407 21.1462 29.6936C21.1462 29.5465 21.2046 29.4054 21.3086 29.3014C21.4127 29.1974 21.5537 29.1389 21.7008 29.1389H25.0287C25.1758 29.1389 25.3168 29.1974 25.4209 29.3014C25.5249 29.4054 25.5833 29.5465 25.5833 29.6936C25.5833 29.8407 25.5249 29.9817 25.4209 30.0858C25.3168 30.1898 25.1758 30.2482 25.0287 30.2482ZM32.7936 27.475H21.7008C21.5537 27.475 21.4127 27.4166 21.3086 27.3126C21.2046 27.2085 21.1462 27.0675 21.1462 26.9204C21.1462 26.7733 21.2046 26.6322 21.3086 26.5282C21.4127 26.4242 21.5537 26.3657 21.7008 26.3657H32.7936C32.9407 26.3657 33.0818 26.4242 33.1858 26.5282C33.2898 26.6322 33.3483 26.7733 33.3483 26.9204C33.3483 27.0675 33.2898 27.2085 33.1858 27.3126C33.0818 27.4166 32.9407 27.475 32.7936 27.475ZM32.7936 24.7018H23.3648C23.2177 24.7018 23.0766 24.6434 22.9726 24.5394C22.8685 24.4354 22.8101 24.2943 22.8101 24.1472C22.8101 24.0001 22.8685 23.859 22.9726 23.755C23.0766 23.651 23.2177 23.5925 23.3648 23.5925H32.7936C32.9407 23.5925 33.0818 23.651 33.1858 23.755C33.2898 23.859 33.3483 24.0001 33.3483 24.1472C33.3483 24.2943 33.2898 24.4354 33.1858 24.5394C33.0818 24.6434 32.9407 24.7018 32.7936 24.7018Z" fill="#A8A43C"/>
<path d="M36.3503 20.4942L31.4539 15.5978C31.3598 15.505 31.2497 15.4298 31.1289 15.376V19.1553C31.1289 19.5966 31.3042 20.0198 31.6163 20.3319C31.9283 20.6439 32.3515 20.8192 32.7928 20.8192H36.5721C36.5183 20.6984 36.4431 20.5883 36.3503 20.4942Z" fill="#A8A43C"/>
<path d="M37.9568 38.839L35.5031 36.3809C36.0537 35.4484 36.2453 34.347 36.0418 33.2834C35.8384 32.2198 35.2539 31.2669 34.398 30.6034C33.5421 29.94 32.4735 29.6115 31.3928 29.6797C30.312 29.7479 29.2932 30.208 28.5275 30.9738C27.7617 31.7395 27.3016 32.7583 27.2334 33.8391C27.1653 34.9198 27.4937 35.9884 28.1571 36.8443C28.8206 37.7002 29.7735 38.2847 30.8371 38.4881C31.9008 38.6916 33.0021 38.5 33.9346 37.9494L36.3927 40.4031C36.4954 40.5058 36.6174 40.5873 36.7515 40.6429C36.8857 40.6984 37.0295 40.727 37.1748 40.727C37.32 40.727 37.4638 40.6984 37.598 40.6429C37.7322 40.5873 37.8541 40.5058 37.9568 40.4031C38.0595 40.3004 38.141 40.1785 38.1966 40.0443C38.2521 39.9101 38.2808 39.7663 38.2808 39.6211C38.2808 39.4758 38.2521 39.332 38.1966 39.1978C38.141 39.0636 38.0595 38.9417 37.9568 38.839ZM28.9107 34.1301C28.9107 33.5817 29.0733 33.0455 29.378 32.5894C29.6827 32.1334 30.1159 31.7779 30.6226 31.568C31.1293 31.3581 31.6869 31.3032 32.2249 31.4102C32.7628 31.5172 33.257 31.7814 33.6448 32.1692C34.0326 32.557 34.2968 33.0512 34.4038 33.5891C34.5108 34.1271 34.4558 34.6847 34.2459 35.1914C34.0361 35.6981 33.6806 36.1312 33.2246 36.436C32.7685 36.7407 32.2323 36.9033 31.6839 36.9033C31.3197 36.9033 30.9591 36.8316 30.6226 36.6922C30.2861 36.5529 29.9804 36.3486 29.7229 36.0911C29.4654 35.8336 29.2611 35.5279 29.1218 35.1914C28.9824 34.8549 28.9107 34.4943 28.9107 34.1301Z" fill="#A8A43C"/>
</svg>
