<svg width="53" height="57" viewBox="0 0 53 57" fill="none" xmlns="http://www.w3.org/2000/svg">
<path d="M31.1143 18.8172C30.9228 18.4626 30.4802 18.3303 30.1257 18.5218L29.2875 18.9743L27.0464 15.6403C26.8234 15.3081 26.3065 15.5851 26.4624 15.9556L28.0207 19.6583L27.1826 20.1108C26.828 20.3023 26.6957 20.7449 26.8872 21.0994L27.3088 21.8804C28.2667 20.8868 29.7219 20.4784 31.0935 20.8965L32.4622 21.3138L31.1143 18.8172Z" fill="#345F72"/>
<path d="M52.0533 53.2979L47.72 42.7805L47.3967 35.0511H47.3993V19.5081C47.3993 17.835 46.0431 16.4786 44.3699 16.4786H38.9674C37.2942 16.4786 35.938 17.8349 35.938 19.5081V22.3738L37.8775 22.9652L40.5031 19.6978L38.0454 24.8406L30.5844 22.5658C29.531 22.2445 28.4162 22.8382 28.095 23.8919C27.7739 24.9456 28.3674 26.0599 29.4211 26.3813L38.5234 29.1565C39.4663 29.4441 40.4788 28.9994 40.9045 28.1088L44.102 21.4181L42.479 28.8613C42.1149 30.531 40.4052 31.5484 38.7519 31.0509C37.7974 30.7597 38.3761 30.9362 35.9379 30.1928V34.9696L33.5973 41.3509C33.5353 41.5198 33.4919 41.6949 33.4676 41.873L31.8288 53.9116C31.643 55.2759 32.5984 56.5325 33.9628 56.7181C35.3257 56.904 36.5835 55.9492 36.7693 54.5841L38.3715 42.8136L41.2187 35.0508H42.4086C42.4087 35.1507 42.3849 34.5456 42.7566 43.4278C42.7687 43.7184 42.8316 44.0045 42.9425 44.2733L47.4431 55.1971C47.9677 56.4703 49.4249 57.0769 50.6978 56.5524C51.9711 56.0281 52.578 54.571 52.0533 53.2979Z" fill="#345F72"/>
<path d="M42.9448 14.9622C45.4212 14.9622 47.4288 12.9547 47.4288 10.4783C47.4288 8.00195 45.4212 5.99445 42.9448 5.99445C40.4685 5.99445 38.4609 8.00195 38.4609 10.4783C38.4609 12.9547 40.4685 14.9622 42.9448 14.9622Z" fill="#345F72"/>
<path d="M18.6026 0C17.8465 0 17.1675 0.13742 16.6998 0.355519C16.5472 0.163685 16.3122 0.0403395 16.048 0.0403395C15.7838 0.0403395 15.5487 0.163685 15.3961 0.355519C14.9284 0.13742 14.2494 0 13.4934 0C12.0825 0 10.9388 0.478089 10.9388 1.06767C10.9388 1.65735 12.0825 2.13533 13.4934 2.13533C14.1567 2.13533 14.7608 2.02972 15.215 1.85639V5.26042H6.05172V1.85639C6.50587 2.02961 7.10997 2.13533 7.77336 2.13533C9.18425 2.13533 10.3279 1.65724 10.3279 1.06767C10.3279 0.477978 9.18425 0.000110823 7.77336 0.000110823C7.01732 0.000110823 6.33831 0.137531 5.87063 0.35563C5.71803 0.163796 5.48297 0.0404503 5.21877 0.0404503C4.95457 0.0404503 4.71951 0.163796 4.56691 0.35563C4.09901 0.13742 3.42011 0 2.66407 0C1.25307 0 0.109375 0.478089 0.109375 1.06767C0.109375 1.65735 1.25307 2.13533 2.66396 2.13533C3.32724 2.13533 3.93134 2.02972 4.3856 1.85639V5.74394C4.26325 5.92248 4.19122 6.13836 4.19122 6.3712C4.19122 6.93817 4.61656 7.40518 5.16524 7.47267L2.93404 13.7563C2.74187 14.2976 3.14383 14.8682 3.71911 14.8682C4.06177 14.8682 4.38294 14.6551 4.50418 14.3136L6.92999 7.48186H7.46782V10.975C7.46782 11.4688 7.86811 11.8691 8.36194 11.8691H12.9047C13.3985 11.8691 13.7988 11.4688 13.7988 10.975V7.48186H14.3366L16.7625 14.3136C16.9164 14.7473 17.3927 14.9738 17.8262 14.82C18.2598 14.6661 18.4864 14.1897 18.3325 13.7563L16.1013 7.47267C16.6501 7.40529 17.0754 6.93828 17.0754 6.3712C17.0754 6.13836 17.0035 5.92248 16.881 5.74394V1.85628C17.3352 2.0295 17.9393 2.13522 18.6027 2.13522C20.0136 2.13522 21.1573 1.65713 21.1573 1.06756C21.1573 0.477978 20.0135 0 18.6026 0ZM10.6334 10.2587C9.95857 10.2587 9.41154 9.71173 9.41154 9.03704C9.41154 8.36224 9.95857 7.81522 10.6334 7.81522C11.3082 7.81522 11.8551 8.36224 11.8551 9.03704C11.8551 9.71173 11.3081 10.2587 10.6334 10.2587Z" fill="#345F72"/>
</svg>
