<svg width="56" height="56" viewBox="0 0 56 56" fill="none" xmlns="http://www.w3.org/2000/svg">
<circle cx="28" cy="28" r="28" fill="#47645D" fill-opacity="0.2"/>
<path d="M30.4553 23.714C30.3694 23.555 30.1708 23.4956 30.0118 23.5816L29.6358 23.7845L28.6304 22.2889C28.5303 22.1398 28.2985 22.2641 28.3684 22.4303L29.0675 24.0914L28.6915 24.2944C28.5324 24.3803 28.4731 24.5789 28.559 24.7379L28.7481 25.0882C29.1778 24.6425 29.8306 24.4593 30.4459 24.6469L31.0599 24.834L30.4553 23.714Z" fill="#47645D"/>
<path d="M40.7629 38.9859L38.4872 33.6665L38.3174 29.7572H38.3188V21.896C38.3188 21.0498 37.6065 20.3638 36.7277 20.3638H33.8905C33.0118 20.3638 32.2995 21.0497 32.2995 21.896V23.3454L33.3181 23.6445L34.697 21.9919L33.4063 24.593L29.488 23.4425C28.9347 23.28 28.3492 23.5802 28.1806 24.1132C28.0119 24.6461 28.3236 25.2097 28.877 25.3722L33.6573 26.7759C34.1525 26.9213 34.6843 26.6964 34.9078 26.246L36.5871 22.862L35.7347 26.6266C35.5435 27.4711 34.6456 27.9856 33.7773 27.734C33.276 27.5867 33.58 27.676 32.2995 27.3V29.716L31.0702 32.9434C31.0377 33.0288 31.0149 33.1174 31.0021 33.2075L30.1414 39.2963C30.0439 39.9863 30.5457 40.6218 31.2622 40.7157C31.9779 40.8097 32.6385 40.3268 32.7361 39.6364L33.5776 33.6832L35.0728 29.757H35.6977C35.6978 29.8075 35.6853 29.5015 35.8805 33.9939C35.8868 34.1408 35.9199 34.2856 35.9781 34.4215L38.3417 39.9464C38.6173 40.5904 39.3826 40.8971 40.051 40.6319C40.7198 40.3667 41.0385 39.6298 40.7629 38.9859Z" fill="#47645D"/>
<path d="M35.7701 20.3639C37.1759 20.3639 38.3155 19.2242 38.3155 17.8184C38.3155 16.4126 37.1759 15.2729 35.7701 15.2729C34.3642 15.2729 33.2246 16.4126 33.2246 17.8184C33.2246 19.2242 34.3642 20.3639 35.7701 20.3639Z" fill="#47645D"/>
<path d="M25.3377 15.2729C24.9262 15.2729 24.5567 15.3435 24.3022 15.4555C24.2191 15.357 24.0912 15.2937 23.9474 15.2937C23.8037 15.2937 23.6757 15.357 23.5927 15.4555C23.3382 15.3435 22.9686 15.2729 22.5572 15.2729C21.7894 15.2729 21.167 15.5185 21.167 15.8213C21.167 16.1242 21.7894 16.3697 22.5572 16.3697C22.9182 16.3697 23.2469 16.3154 23.4941 16.2264V17.9747H18.5073V16.2264C18.7545 16.3154 19.0833 16.3697 19.4443 16.3697C20.2121 16.3697 20.8345 16.1241 20.8345 15.8213C20.8345 15.5184 20.2121 15.273 19.4443 15.273C19.0328 15.273 18.6633 15.3436 18.4088 15.4556C18.3257 15.3571 18.1978 15.2937 18.054 15.2937C17.9103 15.2937 17.7823 15.3571 17.6993 15.4556C17.4447 15.3435 17.0752 15.2729 16.6637 15.2729C15.8959 15.2729 15.2734 15.5185 15.2734 15.8213C15.2734 16.1242 15.8959 16.3697 16.6637 16.3697C17.0246 16.3697 17.3534 16.3154 17.6006 16.2264V18.2231C17.534 18.3148 17.4948 18.4256 17.4948 18.5452C17.4948 18.8364 17.7263 19.0763 18.0249 19.1109L16.8107 22.3382C16.7061 22.6162 16.9248 22.9093 17.2379 22.9093C17.4244 22.9093 17.5992 22.7999 17.6652 22.6245L18.9853 19.1157H19.278V20.9097C19.278 21.1634 19.4958 21.369 19.7646 21.369H22.2368C22.5056 21.369 22.7234 21.1634 22.7234 20.9097V19.1157H23.0161L24.3363 22.6245C24.42 22.8472 24.6793 22.9636 24.9152 22.8846C25.1511 22.8055 25.2745 22.5609 25.1907 22.3382L23.9764 19.1109C24.2751 19.0763 24.5066 18.8365 24.5066 18.5452C24.5066 18.4256 24.4674 18.3148 24.4008 18.2231V16.2263C24.648 16.3153 24.9767 16.3696 25.3377 16.3696C26.1056 16.3696 26.728 16.1241 26.728 15.8212C26.728 15.5184 26.1055 15.2729 25.3377 15.2729ZM21.0007 20.5419C20.6335 20.5419 20.3358 20.2609 20.3358 19.9144C20.3358 19.5678 20.6335 19.2869 21.0007 19.2869C21.368 19.2869 21.6656 19.5678 21.6656 19.9144C21.6656 20.2609 21.3679 20.5419 21.0007 20.5419Z" fill="#47645D"/>
</svg>
