<svg width="56" height="56" viewBox="0 0 56 56" fill="none" xmlns="http://www.w3.org/2000/svg">
<circle cx="28" cy="28" r="28" fill="#F69522" fill-opacity="0.2"/>
<path d="M44.5447 20.9712C44.5447 20.582 42.8887 20.2484 40.6123 20.1422C40.4431 20.1321 40.2893 20.0361 40.2176 19.8844C39.9971 19.4143 39.5152 19.0908 38.9614 19.0908C38.4077 19.0908 37.9309 19.4093 37.7053 19.8844C37.6335 20.0361 37.4797 20.1321 37.3105 20.1422C35.0342 20.2534 33.3781 20.582 33.3781 20.9712C33.3781 21.3857 35.2239 21.7294 37.6951 21.8204L37.8745 24.1001C37.8745 24.1001 37.8796 24.1254 37.8848 24.1406C36.7978 24.3984 35.716 24.5803 34.6291 24.7219C34.5009 24.363 34.1574 24.1001 33.7524 24.1001H32.6091C31.7324 22.892 30.3019 22.0782 28.6357 22.0782C26.9694 22.0782 25.5389 22.892 24.6622 24.1001H23.5189C23.1139 24.1001 22.7704 24.3579 22.6422 24.7168C21.5553 24.5702 20.4683 24.3731 19.3917 24.1254C19.3917 24.1153 19.3917 24.1052 19.3968 24.1001L19.5762 21.8204C22.0475 21.7294 23.8932 21.3857 23.8932 20.9712C23.8932 20.582 22.2372 20.2484 19.9608 20.1422C19.7916 20.1321 19.6378 20.0361 19.566 19.8844C19.3455 19.4143 18.8636 19.0908 18.3099 19.0908C17.7562 19.0908 17.2793 19.4093 17.0538 19.8844C16.982 20.0361 16.8282 20.1321 16.659 20.1422C14.3826 20.2534 12.7266 20.582 12.7266 20.9712C12.7266 21.3857 14.5723 21.7294 17.0435 21.8204L17.2178 24.0193C16.136 24.4337 15.367 25.6267 15.7464 26.8348C16.095 28.0783 17.4024 28.8062 18.6636 28.4574C19.9761 28.1288 21.304 27.8811 22.6319 27.6992C22.7601 28.058 23.1036 28.3158 23.5086 28.3158H23.9393L23.9547 28.3866C23.9855 28.513 24.0265 28.6292 24.0726 28.7455C24.0726 28.7455 20.6478 31.1516 20.6375 31.1617C20.4632 31.3386 20.3555 31.5812 20.3555 31.8491V35.9183C20.3914 37.2275 22.3346 37.2224 22.3653 35.9183V32.294L25.7748 30.2417C25.985 30.2973 26.2055 30.3378 26.431 30.3378H30.8044C31.03 30.3378 31.2504 30.2973 31.4606 30.2417L34.8701 32.294V35.9183C34.8701 36.4642 35.3213 36.909 35.875 36.909C36.4287 36.909 36.8799 36.4642 36.8799 35.9183V31.8491C36.8799 31.5913 36.7722 31.3234 36.5671 31.1314L33.1628 28.7455C33.2089 28.6292 33.25 28.513 33.2807 28.3866L33.2961 28.3158H33.7268C34.1369 28.3158 34.4804 28.053 34.6035 27.6941C35.9314 27.8609 37.2644 28.0934 38.5923 28.4574C38.9922 28.5635 39.4331 28.5736 39.8638 28.4574C42.3299 27.689 41.9351 24.646 40.0176 23.999L40.1919 21.8154C42.6631 21.7244 44.5089 21.3806 44.5089 20.9662L44.5447 20.9712Z" fill="#D16928"/>
</svg>
