<svg width="56" height="56" viewBox="0 0 56 56" fill="none" xmlns="http://www.w3.org/2000/svg">
<circle cx="28" cy="28" r="28" fill="#62C4B5" fill-opacity="0.2"/>
<path d="M29.7375 21.7974C31.2388 23.2987 32.7 24.7732 34.2013 26.2745C34.1075 26.3818 33.9868 26.5158 33.8528 26.6499C30.6758 29.8268 27.5123 33.0171 24.3085 36.1672C23.9064 36.5559 23.3568 36.8508 22.834 37.0385C21.5873 37.454 20.3139 37.7891 19.0538 38.1377C18.2763 38.3521 17.6463 37.7623 17.8608 36.9714C18.2495 35.5371 18.6785 34.1028 19.1208 32.6686C19.2147 32.3736 19.4157 32.0921 19.6302 31.8643C22.9412 28.5399 26.2522 25.229 29.5766 21.9046C29.6168 21.8912 29.6705 21.851 29.7375 21.7974Z" fill="#62C4B5"/>
<path d="M35.2344 25.2419C33.7331 23.7271 32.2585 22.2526 30.8242 20.7915C31.5615 20.0274 32.3122 19.1561 33.1567 18.4055C34.0682 17.5878 35.4489 17.6414 36.3872 18.4591C36.8028 18.821 37.1915 19.2098 37.5535 19.6253C38.3846 20.577 38.398 22.0113 37.5535 22.9497C36.8162 23.7405 36.0119 24.4644 35.2344 25.2419Z" fill="#62C4B5"/>
</svg>
