<svg width="18" height="24" viewBox="0 0 18 24" fill="none" xmlns="http://www.w3.org/2000/svg">
<path d="M9.01458 0.588867C6.705 0.591841 4.49088 1.48365 2.85776 3.06874C1.22463 4.65383 0.305798 6.80282 0.302734 9.04448C0.302734 15.1149 8.41927 22.7179 8.76412 23.0385C8.83119 23.1018 8.92105 23.1372 9.01458 23.1372C9.10812 23.1372 9.19797 23.1018 9.26505 23.0385C9.60989 22.7179 17.7264 15.1149 17.7264 9.04448C17.7234 6.80282 16.8045 4.65383 15.1714 3.06874C13.5383 1.48365 11.3242 0.591841 9.01458 0.588867ZM9.01458 12.92C8.22486 12.92 7.45286 12.6927 6.79623 12.2668C6.1396 11.841 5.62781 11.2357 5.3256 10.5276C5.02338 9.81941 4.94431 9.04018 5.09838 8.28841C5.25244 7.53663 5.63273 6.84609 6.19115 6.30409C6.74958 5.7621 7.46105 5.39299 8.2356 5.24345C9.01015 5.09392 9.813 5.17067 10.5426 5.46399C11.2722 5.75732 11.8958 6.25405 12.3346 6.89137C12.7733 7.52869 13.0075 8.27798 13.0075 9.04448C13.0069 10.0721 12.586 11.0575 11.8373 11.7842C11.0886 12.5108 10.0734 12.9193 9.01458 12.92Z" fill="#47645D"/>
</svg>
