<svg width="43" height="31" viewBox="0 0 43 31" fill="none" xmlns="http://www.w3.org/2000/svg">
<path d="M42.3548 28.8786C42.3548 29.3893 42.1531 29.8791 41.7942 30.2403C41.4352 30.6014 40.9484 30.8043 40.4408 30.8043H17.4724C16.9648 30.8043 16.4779 30.6014 16.119 30.2403C15.76 29.8791 15.5584 29.3893 15.5584 28.8786C15.5584 25.8142 16.7683 22.8754 18.922 20.7085C21.0757 18.5417 23.9967 17.3244 27.0425 17.3244H30.8706C33.9164 17.3244 36.8375 18.5417 38.9912 20.7085C41.1449 22.8754 42.3548 25.8142 42.3548 28.8786ZM28.9566 -0.00695801C27.4423 -0.00695801 25.9621 0.444804 24.7031 1.2912C23.444 2.1376 22.4627 3.34061 21.8832 4.74812C21.3038 6.15562 21.1521 7.7044 21.4476 9.1986C21.743 10.6928 22.4721 12.0653 23.5429 13.1426C24.6136 14.2198 25.9778 14.9534 27.4629 15.2507C28.9481 15.5479 30.4875 15.3953 31.8864 14.8123C33.2854 14.2293 34.4811 13.242 35.3224 11.9753C36.1637 10.7086 36.6127 9.21933 36.6127 7.69585C36.6127 5.65294 35.8061 3.6937 34.3703 2.24914C32.9345 0.804586 30.9871 -0.00695801 28.9566 -0.00695801ZM11.7303 -0.00695801C10.216 -0.00695801 8.73581 0.444804 7.47677 1.2912C6.21773 2.1376 5.23642 3.34061 4.65695 4.74812C4.07747 6.15562 3.92586 7.7044 4.22127 9.1986C4.51668 10.6928 5.24586 12.0653 6.31659 13.1426C7.38731 14.2198 8.75151 14.9534 10.2367 15.2507C11.7218 15.5479 13.2612 15.3953 14.6602 14.8123C16.0591 14.2293 17.2549 13.242 18.0961 11.9753C18.9374 10.7086 19.3864 9.21933 19.3864 7.69585C19.3864 5.65294 18.5798 3.6937 17.144 2.24914C15.7082 0.804586 13.7608 -0.00695801 11.7303 -0.00695801ZM11.7303 28.8786C11.7274 26.8558 12.1235 24.8526 12.8956 22.985C13.6677 21.1174 14.8005 19.4224 16.2283 17.9984C15.0598 17.5545 13.8214 17.3262 12.5725 17.3244H10.8881C8.06723 17.3295 5.36333 18.4591 3.36866 20.466C1.37399 22.4728 0.251154 25.1932 0.246094 28.0313V28.8786C0.246094 29.3893 0.44775 29.8791 0.806701 30.2403C1.16565 30.6014 1.65249 30.8043 2.16013 30.8043H12.0748C11.852 30.1868 11.7355 29.5355 11.7303 28.8786Z" fill="#F7BE68"/>
</svg>
