<svg width="54" height="40" viewBox="0 0 54 40" fill="none" xmlns="http://www.w3.org/2000/svg">
<path d="M53.7974 37.1452C53.7974 37.7953 53.5408 38.4187 53.0839 38.8783C52.627 39.338 52.0074 39.5962 51.3613 39.5962H22.1281C21.482 39.5962 20.8623 39.338 20.4055 38.8783C19.9486 38.4187 19.692 37.7953 19.692 37.1452C19.692 33.245 21.2319 29.5046 23.9731 26.7467C26.7142 23.9888 30.432 22.4395 34.3086 22.4395H39.1808C43.0574 22.4395 46.7752 23.9888 49.5163 26.7467C52.2575 29.5046 53.7974 33.245 53.7974 37.1452ZM36.7447 0.380859C34.8174 0.380859 32.9334 0.955844 31.331 2.0331C29.7285 3.11036 28.4795 4.64151 27.742 6.43293C27.0045 8.22434 26.8115 10.1956 27.1875 12.0973C27.5635 13.9991 28.4916 15.746 29.8543 17.1171C31.2171 18.4881 32.9534 19.4219 34.8436 19.8001C36.7339 20.1784 38.6932 19.9843 40.4737 19.2423C42.2543 18.5002 43.7761 17.2436 44.8469 15.6314C45.9176 14.0192 46.4891 12.1237 46.4891 10.1847C46.4891 7.58455 45.4625 5.09091 43.635 3.25234C41.8076 1.41376 39.3291 0.380859 36.7447 0.380859ZM14.8197 0.380859C12.8925 0.380859 11.0085 0.955844 9.40604 2.0331C7.80358 3.11036 6.55461 4.64151 5.81708 6.43293C5.07955 8.22434 4.88658 10.1956 5.26257 12.0973C5.63856 13.9991 6.56663 15.746 7.92941 17.1171C9.29219 18.4881 11.0285 19.4219 12.9187 19.8001C14.8089 20.1784 16.7682 19.9843 18.5488 19.2423C20.3293 18.5002 21.8512 17.2436 22.9219 15.6314C23.9927 14.0192 24.5642 12.1237 24.5642 10.1847C24.5642 7.58455 23.5375 5.09091 21.7101 3.25234C19.8827 1.41376 17.4041 0.380859 14.8197 0.380859ZM14.8197 37.1452C14.8161 34.5708 15.3203 32.0212 16.303 29.6441C17.2856 27.2671 18.7274 25.1098 20.5446 23.2973C19.0574 22.7324 17.4813 22.4418 15.8916 22.4395H13.7479C10.1576 22.446 6.71614 23.8838 4.1774 26.438C1.63866 28.9922 0.209565 32.4546 0.203125 36.0668V37.1452C0.203125 37.7953 0.459785 38.4187 0.916643 38.8783C1.3735 39.338 1.99313 39.5962 2.63923 39.5962H15.2582C14.9746 38.8102 14.8263 37.9814 14.8197 37.1452Z" fill="#A8A43C"/>
</svg>
