<svg width="18" height="20" viewBox="0 0 18 20" fill="none" xmlns="http://www.w3.org/2000/svg">
<path d="M18 18.75C18 19.0815 17.8645 19.3995 17.6234 19.6339C17.3823 19.8683 17.0553 20 16.7143 20H1.28571C0.944721 20 0.617695 19.8683 0.376577 19.6339C0.135459 19.3995 0 19.0815 0 18.75C0 16.7609 0.812753 14.8532 2.25946 13.4467C3.70617 12.0402 5.66833 11.25 7.71429 11.25H10.2857C12.3317 11.25 14.2938 12.0402 15.7405 13.4467C17.1872 14.8532 18 16.7609 18 18.75ZM9 0C7.98284 0 6.98852 0.293245 6.14278 0.842652C5.29704 1.39206 4.63787 2.17295 4.24862 3.08658C3.85937 4.00021 3.75752 5.00555 3.95596 5.97545C4.1544 6.94536 4.64421 7.83627 5.36345 8.53553C6.08269 9.2348 6.99906 9.711 7.99668 9.90393C8.99429 10.0969 10.0284 9.99784 10.9681 9.6194C11.9078 9.24096 12.711 8.6001 13.2761 7.77785C13.8412 6.95561 14.1429 5.98891 14.1429 5C14.1429 3.67392 13.601 2.40215 12.6365 1.46447C11.6721 0.526784 10.364 0 9 0Z" fill="#A8A43C"/>
</svg>
