<svg width="76" height="64" viewBox="0 0 76 64" fill="none" xmlns="http://www.w3.org/2000/svg">
<path d="M0.595296 64L0.595299 50.8C3.3953 50.4 5.92863 49.3333 8.1953 47.6C10.462 45.7333 12.262 43.3333 13.5953 40.4C14.9286 37.3333 15.5953 33.7333 15.5953 29.6L2.3953 29.6L2.39531 0.599999L32.3953 0.600005L32.3953 26.2C32.3953 35.1333 30.7953 42.3333 27.5953 47.8C24.3953 53.1333 20.3286 57.0667 15.3953 59.6C10.5953 62 5.66196 63.4667 0.595296 64ZM43.5953 64L43.5953 50.8C46.3953 50.4 48.9286 49.3333 51.1953 47.6C53.462 45.7333 55.262 43.3333 56.5953 40.4C57.9286 37.3333 58.5953 33.7333 58.5953 29.6L45.3953 29.6L45.3953 0.600007L75.3953 0.600012L75.3953 26.2C75.3953 35.1333 73.7953 42.3333 70.5953 47.8C67.3953 53.1333 63.3286 57.0667 58.3953 59.6C53.5953 62 48.662 63.4667 43.5953 64Z" fill="white"/>
</svg>
