<svg width="76" height="64" viewBox="0 0 76 64" fill="none" xmlns="http://www.w3.org/2000/svg">
<path d="M75.4047 4.15294e-06L75.4047 13.2C72.6047 13.6 70.0714 14.6667 67.8047 16.4C65.538 18.2667 63.738 20.6667 62.4047 23.6C61.0714 26.6667 60.4047 30.2667 60.4047 34.4L73.6047 34.4L73.6047 63.4L43.6047 63.4L43.6047 37.8C43.6047 28.8667 45.2047 21.6667 48.4047 16.2C51.6047 10.8667 55.6714 6.93334 60.6047 4.40001C65.4047 2.00001 70.338 0.533339 75.4047 4.15294e-06ZM32.4047 7.91212e-06L32.4047 13.2C29.6047 13.6 27.0714 14.6667 24.8047 16.4C22.538 18.2667 20.738 20.6667 19.4047 23.6C18.0714 26.6667 17.4047 30.2667 17.4047 34.4L30.6047 34.4L30.6047 63.4L0.604691 63.4L0.604689 37.8C0.604688 28.8667 2.20469 21.6667 5.40469 16.2C8.60469 10.8667 12.6714 6.93335 17.6047 4.40001C22.4047 2.00001 27.338 0.533343 32.4047 7.91212e-06Z" fill="white"/>
</svg>
