<svg width="48" height="59" viewBox="0 0 48 59" fill="none" xmlns="http://www.w3.org/2000/svg">
<path fill-rule="evenodd" clip-rule="evenodd" d="M40.4584 48.7966C44.6413 44.4624 47.1382 39.5426 47.1382 35.6346V10.5698C47.1382 10.329 47.0407 10.098 46.8671 9.92773C46.6935 9.75744 46.4581 9.66177 46.2126 9.66177C38.4973 9.66177 29.9367 6.1554 24.4057 0.728978C24.3197 0.64462 24.2177 0.577702 24.1053 0.532046C23.993 0.48639 23.8726 0.462891 23.751 0.462891C23.6294 0.462891 23.509 0.48639 23.3967 0.532046C23.2844 0.577702 23.1823 0.64462 23.0964 0.728978C17.5648 6.1554 9.0053 9.66177 1.28891 9.66177C1.04342 9.66177 0.80798 9.75744 0.634391 9.92773C0.460802 10.098 0.363281 10.329 0.363281 10.5698V35.6346C0.363281 39.5426 2.86017 44.4624 7.0425 48.7966C11.5617 53.4805 17.4102 56.9424 23.5106 58.5466C23.6676 58.5874 23.8327 58.5874 23.9897 58.5466C30.0914 56.9426 35.9402 53.4807 40.4584 48.7966Z" fill="#A8A43C"/>
<path d="M35.2709 22.2274C34.5692 21.5561 33.4298 21.5566 32.7272 22.2274L21.2787 33.1662L16.1903 28.3046C15.4877 27.6333 14.3487 27.6333 13.6461 28.3046C12.9435 28.9759 12.9435 30.0641 13.6461 30.7354L20.0063 36.8122C20.3574 37.1476 20.8178 37.3158 21.2782 37.3158C21.7386 37.3158 22.1994 37.148 22.5505 36.8122L35.2709 24.6582C35.9735 23.9873 35.9735 22.8987 35.2709 22.2274Z" fill="white"/>
</svg>
