<svg width="54" height="54" viewBox="0 0 54 54" fill="none" xmlns="http://www.w3.org/2000/svg">
<path d="M26.7568 1.0119C33.7509 1.0119 40.236 3.60434 45.1641 8.53241C55.2758 18.6443 55.2759 35.235 45.1641 45.3469C40.236 50.2748 33.7509 52.8664 26.7568 52.8664C19.7628 52.8664 13.2777 50.2749 8.34961 45.3469C-1.7622 35.235 -1.76211 18.6443 8.34961 8.53241C13.2777 3.60435 19.7627 1.01191 26.7568 1.0119ZM14.9053 42.9621C18.3269 45.5231 22.4252 46.9152 26.7568 46.9152C31.9959 46.9152 36.9888 44.9218 40.9912 41.174C44.7391 37.1716 46.7324 32.1787 46.7324 26.9396C46.7324 22.6079 45.3414 18.5088 42.7803 15.0871L14.9053 42.9621ZM26.7568 6.96405C21.5201 6.96406 16.5289 8.95483 12.5273 12.6994L12.2031 13.0422C5.61523 20.1885 4.90774 31.1942 10.7285 38.7941L38.6084 10.9152C35.1869 8.35452 31.0882 6.96405 26.7568 6.96405Z" fill="#345F72" stroke="#345F72" stroke-width="0.851119"/>
</svg>
