<svg width="56" height="56" viewBox="0 0 56 56" fill="none" xmlns="http://www.w3.org/2000/svg">
<circle cx="28" cy="28" r="28" fill="#B6D3E0" fill-opacity="0.5"/>
<path d="M38.3856 16.5454H27.2024C25.9083 16.5454 24.8594 17.5945 24.8594 18.8885V24.397C25.4505 24.6909 26.0893 25.0086 26.6855 25.3049L27.5976 23.4798C28.1499 22.3762 29.4964 21.9277 30.5996 22.4791C31.7052 23.0324 32.1532 24.3751 31.5998 25.4809L29.9737 28.7338C30.0168 29.1643 29.9786 29.5984 29.8572 30.0184H30.9307L28.0993 37.8044C27.9313 38.2662 28.256 38.8051 28.8003 38.8051C29.1046 38.8051 29.3909 38.6173 29.5008 38.314L32.5176 30.0184H33.0402L36.0876 38.3165C36.1985 38.6183 36.484 38.8051 36.7881 38.8051C37.2967 38.8051 37.6696 38.2971 37.4876 37.8025L34.6289 30.0184H38.3856C39.6796 30.0184 40.7287 28.9693 40.7287 27.6754V18.8885C40.7287 17.5945 39.6796 16.5454 38.3856 16.5454ZM36.7877 26.8236H33.4418C33.0301 26.8236 32.696 26.4896 32.696 26.0779C32.696 25.6658 33.0301 25.3321 33.4418 25.3321H36.7877C37.1998 25.3321 37.5334 25.6658 37.5334 26.0779C37.5334 26.4896 37.1998 26.8236 36.7877 26.8236ZM36.7877 24.0277H33.4418C33.0301 24.0277 32.696 23.694 32.696 23.2819C32.696 22.8702 33.0301 22.5362 33.4418 22.5362H36.7877C37.1998 22.5362 37.5334 22.8702 37.5334 23.2819C37.5334 23.694 37.1998 24.0277 36.7877 24.0277ZM36.7877 21.2321H28.8003C28.3882 21.2321 28.0546 20.8981 28.0546 20.4864C28.0546 20.0747 28.3882 19.7406 28.8003 19.7406H36.7877C37.1998 19.7406 37.5334 20.0747 37.5334 20.4864C37.5334 20.8981 37.1998 21.2321 36.7877 21.2321Z" fill="#345F72"/>
<path d="M28.3946 29.6983C28.5293 29.3035 28.5284 28.891 28.4146 28.5146L30.2653 24.8135C30.4494 24.4451 30.3003 23.9971 29.9319 23.813C29.5637 23.6287 29.1156 23.778 28.9313 24.1464L27.3528 27.303C26.4094 26.8332 24.976 26.1205 23.8213 25.5462C22.7469 25.012 21.9802 24.5329 20.6721 24.5329H20.0131C21.0317 24.5329 21.9408 24.0641 22.5358 23.3304C22.9899 22.7721 23.2614 22.0605 23.2614 21.2851C23.2614 19.4908 21.8072 18.0366 20.0128 18.0366C18.2191 18.0366 16.7649 19.4908 16.7649 21.2851C16.7649 22.1467 17.1005 22.9298 17.648 23.5108C18.2399 24.1402 19.0806 24.5329 20.0126 24.5331C18.7631 24.5331 17.5415 25.0394 16.6628 25.9205C15.7669 26.814 15.2734 28.0045 15.2734 29.2726V31.6689C15.2734 32.7005 15.9432 33.5783 16.8709 33.8906V38.0589C16.8709 38.4708 17.2048 38.8047 17.6167 38.8047H22.4092C22.8211 38.8047 23.155 38.4708 23.155 38.0589V29.68C23.8621 30.0335 24.7909 30.4978 25.5425 30.8738C26.0694 31.1371 26.685 31.1608 27.234 30.9375C27.7815 30.7122 28.2035 30.2638 28.3916 29.707C28.3926 29.7041 28.3936 29.7012 28.3946 29.6983Z" fill="#345F72"/>
</svg>
