<svg width="26" height="26" viewBox="0 0 26 26" fill="none" xmlns="http://www.w3.org/2000/svg">
<path d="M10.6038 1C7.62639 1.04322 5.93959 1.26412 4.80745 2.39625C3.40039 3.8021 3.40039 6.06636 3.40039 10.5937V12.9948C3.40039 17.5221 3.40039 19.7863 4.80745 21.1922C6.21452 22.598 8.47759 22.5992 13.0049 22.5992C17.5323 22.5992 19.7965 22.5992 21.2024 21.1922C22.6083 19.7851 22.6095 17.5221 22.6095 12.9948V10.5937C22.6095 6.06636 22.6095 3.8021 21.2024 2.39625C20.0703 1.26412 18.3835 1.04322 15.4061 1" fill="#AEA740"/>
<path d="M10.6038 1C7.62639 1.04322 5.93959 1.26412 4.80745 2.39625C3.40039 3.8021 3.40039 6.06636 3.40039 10.5937V12.9948C3.40039 17.5221 3.40039 19.7863 4.80745 21.1922C6.21452 22.598 8.47759 22.5992 13.0049 22.5992C17.5323 22.5992 19.7965 22.5992 21.2024 21.1922C22.6083 19.7851 22.6095 17.5221 22.6095 12.9948V10.5937C22.6095 6.06636 22.6095 3.8021 21.2024 2.39625C20.0703 1.26412 18.3835 1.04322 15.4061 1" stroke="white" stroke-width="1.18843" stroke-linecap="round"/>
<path d="M22.6102 14.1948H17.8079H22.6102ZM3.40113 14.1948H13.0057H3.40113ZM17.2077 17.7965H19.0085H17.2077ZM7.00283 17.7965H8.80368H7.00283ZM5.80227 21.9984V23.7993C5.80227 24.1177 5.92876 24.4231 6.15391 24.6482C6.37906 24.8733 6.68442 24.9998 7.00283 24.9998H8.80368C9.1221 24.9998 9.42746 24.8733 9.65261 24.6482C9.87776 24.4231 10.0043 24.1177 10.0043 23.7993V22.5987M20.2091 21.9984V23.7993C20.2091 24.1177 20.0826 24.4231 19.8574 24.6482C19.6323 24.8733 19.3269 24.9998 19.0085 24.9998H17.2077C16.8892 24.9998 16.5839 24.8733 16.3587 24.6482C16.1336 24.4231 16.0071 24.1177 16.0071 23.7993V22.5987M22.6102 9.39258H23.8108C24.1292 9.39258 24.4345 9.51907 24.6597 9.74421C24.8848 9.96936 25.0113 10.2747 25.0113 10.5931V11.7937C25.0113 11.9801 24.9679 12.1639 24.8846 12.3306C24.8012 12.4973 24.6802 12.6423 24.5311 12.7541L22.6102 14.1948M3.40113 9.39258H2.20057C1.88216 9.39258 1.57679 9.51907 1.35164 9.74421C1.12649 9.96936 1 10.2747 1 10.5931V11.7937C1 11.9801 1.04339 12.1639 1.12675 12.3306C1.2101 12.4973 1.33112 12.6423 1.48023 12.7541L3.40113 14.1948" fill="#AEA740"/>
<path d="M17.8079 14.1948H22.6102L24.5311 12.7541C24.6802 12.6423 24.8012 12.4973 24.8846 12.3306C24.9679 12.1639 25.0113 11.9801 25.0113 11.7937V10.5931C25.0113 10.2747 24.8848 9.96936 24.6597 9.74421C24.4346 9.51907 24.1292 9.39258 23.8108 9.39258H22.6102M13.0057 14.1948H3.40113L1.48023 12.7541C1.33112 12.6423 1.2101 12.4973 1.12675 12.3306C1.04339 12.1639 1 11.9801 1 11.7937V10.5931C1 10.2747 1.12649 9.96936 1.35164 9.74421C1.57679 9.51907 1.88216 9.39258 2.20057 9.39258H3.40113M17.2077 17.7965H19.0085M7.00283 17.7965H8.80368M5.80227 21.9984V23.7993C5.80227 24.1177 5.92876 24.4231 6.15391 24.6482C6.37906 24.8733 6.68442 24.9998 7.00283 24.9998H8.80368C9.12209 24.9998 9.42746 24.8733 9.65261 24.6482C9.87776 24.4231 10.0043 24.1177 10.0043 23.7993V22.5987M20.2091 21.9984V23.7993C20.2091 24.1177 20.0826 24.4231 19.8574 24.6482C19.6323 24.8733 19.3269 24.9998 19.0085 24.9998H17.2077C16.8892 24.9998 16.5839 24.8733 16.3587 24.6482C16.1336 24.4231 16.0071 24.1177 16.0071 23.7993V22.5987" stroke="white" stroke-width="1.18843" stroke-linecap="round" stroke-linejoin="round"/>
<path d="M4.00195 4.5918H8.50408H4.00195ZM22.0105 4.5918H13.0062H22.0105Z" fill="#AEA740"/>
<path d="M4.00195 4.5918H8.50408M22.0105 4.5918H13.0062" stroke="white" stroke-width="1.18843" stroke-linecap="round"/>
</svg>
