<svg width="145" height="97" viewBox="0 0 145 97" fill="none" xmlns="http://www.w3.org/2000/svg">
<path d="M51.2655 36.9134C51.2655 36.2867 48.6368 35.7496 45.0233 35.5787C44.7547 35.5624 44.5106 35.4078 44.3966 35.1636C44.0467 34.4067 43.2816 33.8859 42.4027 33.8859C41.5237 33.8859 40.7668 34.3986 40.4087 35.1636C40.2948 35.4078 40.0506 35.5624 39.7821 35.5787C36.1686 35.7577 33.5398 36.2867 33.5398 36.9134C33.5398 37.5808 36.4697 38.1342 40.3925 38.2807L40.6773 41.9511C40.6773 41.9511 40.6854 41.9918 40.6936 42.0163C38.9682 42.4313 37.251 42.7243 35.5256 42.9522C35.3222 42.3744 34.7769 41.9511 34.1339 41.9511H32.319C30.9273 40.006 28.6567 38.6957 26.0117 38.6957C23.3666 38.6957 21.096 40.006 19.7043 41.9511H17.8894C17.2465 41.9511 16.7012 42.3662 16.4977 42.9441C14.7724 42.708 13.047 42.3906 11.3379 41.9918C11.3379 41.9756 11.3379 41.9593 11.346 41.9511L11.6309 38.2807C15.5537 38.1342 18.4835 37.5808 18.4835 36.9134C18.4835 36.2867 15.8548 35.7496 12.2413 35.5787C11.9727 35.5624 11.7286 35.4078 11.6146 35.1636C11.2647 34.4067 10.4996 33.8859 9.62067 33.8859C8.74171 33.8859 7.98483 34.3986 7.62673 35.1636C7.51279 35.4078 7.26864 35.5624 7.00007 35.5787C3.38656 35.7577 0.757812 36.2867 0.757812 36.9134C0.757812 37.5808 3.68768 38.1342 7.61046 38.2807L7.88717 41.8209C6.16994 42.4883 4.94916 44.409 5.55141 46.3541C6.10483 48.3562 8.18015 49.5281 10.1822 48.9666C12.2657 48.4376 14.3736 48.0388 16.4815 47.7458C16.6849 48.3236 17.2302 48.7387 17.8731 48.7387H18.5568L18.5812 48.8526C18.63 49.0561 18.6951 49.2433 18.7684 49.4305C18.7684 49.4305 13.3318 53.3044 13.3156 53.3207C13.0389 53.6055 12.8679 53.9962 12.8679 54.4275V60.979C12.9249 63.0869 16.0094 63.0788 16.0582 60.979V55.1437L21.4704 51.8395C21.8041 51.929 22.154 51.9941 22.5121 51.9941H29.4543C29.8124 51.9941 30.1623 51.929 30.496 51.8395L35.9081 55.1437V60.979C35.9081 61.858 36.6243 62.5742 37.5033 62.5742C38.3822 62.5742 39.0984 61.858 39.0984 60.979V54.4275C39.0984 54.0125 38.9275 53.5811 38.602 53.2718L33.198 49.4305C33.2712 49.2433 33.3364 49.0561 33.3852 48.8526L33.4096 48.7387H34.0932C34.7443 48.7387 35.2896 48.3155 35.4849 47.7376C37.5928 48.0062 39.7088 48.3806 41.8167 48.9666C42.4515 49.1375 43.1514 49.1538 43.8351 48.9666C47.7497 47.7295 47.123 42.8301 44.0792 41.7884L44.3559 38.2725C48.2787 38.126 51.2086 37.5726 51.2086 36.9053L51.2655 36.9134Z" fill="#345F72"/>
<path d="M144.889 32.5622C144.889 31.6946 141.198 30.9509 136.124 30.7143C135.746 30.6918 135.404 30.4777 135.244 30.1396C134.752 29.0917 133.678 28.3706 132.444 28.3706C131.209 28.3706 130.146 29.0805 129.644 30.1396C129.484 30.4777 129.141 30.6918 128.764 30.7143C123.689 30.9622 119.998 31.6946 119.998 32.5622C119.998 33.4862 124.112 34.2524 129.621 34.4552L130.021 39.537C130.021 39.537 130.032 39.5933 130.044 39.6271C127.621 40.2018 125.209 40.6074 122.786 40.9229C122.501 40.1229 121.735 39.537 120.832 39.537H118.283C116.329 36.844 113.14 35.0299 109.426 35.0299C105.712 35.0299 102.523 36.844 100.569 39.537H98.0203C97.1174 39.537 96.3517 40.1116 96.066 40.9116C93.6431 40.5849 91.2202 40.1454 88.8202 39.5933C88.8202 39.5708 88.8202 39.5482 88.8316 39.537L89.2316 34.4552C94.7403 34.2524 98.8546 33.4862 98.8546 32.5622C98.8546 31.6946 95.1631 30.9509 90.0888 30.7143C89.7116 30.6918 89.3688 30.4777 89.2088 30.1396C88.7173 29.0917 87.643 28.3706 86.4087 28.3706C85.1744 28.3706 84.1116 29.0805 83.6087 30.1396C83.4487 30.4777 83.1059 30.6918 82.7287 30.7143C77.6544 30.9622 73.9629 31.6946 73.9629 32.5622C73.9629 33.4862 78.0772 34.2524 83.5859 34.4552L83.9744 39.3567C81.563 40.2806 79.8487 42.9398 80.6944 45.6328C81.4715 48.4047 84.3859 50.0272 87.1973 49.2498C90.1231 48.5174 93.0831 47.9652 96.0431 47.5596C96.3289 48.3596 97.0946 48.9343 97.9974 48.9343H98.9575L98.9917 49.092C99.0603 49.3737 99.1517 49.6329 99.2546 49.892C99.2546 49.892 91.6202 55.2555 91.5974 55.278C91.2088 55.6724 90.9688 56.2132 90.9688 56.8104V65.881C91.0488 68.7993 95.3803 68.7881 95.4488 65.881V57.802L103.049 53.2273C103.518 53.3512 104.009 53.4414 104.512 53.4414H114.26C114.763 53.4414 115.255 53.3512 115.723 53.2273L123.323 57.802V65.881C123.323 67.0979 124.329 68.0895 125.563 68.0895C126.798 68.0895 127.804 67.0979 127.804 65.881V56.8104C127.804 56.2358 127.564 55.6386 127.106 55.2104L119.518 49.892C119.621 49.6329 119.712 49.3737 119.781 49.092L119.815 48.9343H120.775C121.689 48.9343 122.455 48.3483 122.729 47.5483C125.689 47.9202 128.661 48.4385 131.621 49.2498C132.512 49.4864 133.495 49.5089 134.455 49.2498C139.952 47.5371 139.072 40.7539 134.798 39.3116L135.186 34.4439C140.695 34.2411 144.809 33.4749 144.809 32.5509L144.889 32.5622Z" fill="#345F72"/>
</svg>
