<svg width="51" height="51" viewBox="0 0 51 51" fill="none" xmlns="http://www.w3.org/2000/svg">
<path d="M25.2575 0.337158H25.2449C11.3597 0.337158 0.0683594 11.6317 0.0683594 25.52C0.0683594 31.0288 1.84375 36.1346 4.86255 40.2803L1.72413 49.6357L11.4038 46.5414C15.3858 49.1793 20.1359 50.7029 25.2575 50.7029C39.1427 50.7029 50.4341 39.4052 50.4341 25.52C50.4341 11.6348 39.1427 0.337158 25.2575 0.337158ZM39.9108 35.8985C39.3032 37.6141 36.892 39.0369 34.9687 39.4524C33.6528 39.7326 31.9341 39.9561 26.1484 37.5574C18.7477 34.4914 13.9819 26.9712 13.6104 26.4833C13.2547 25.9953 10.62 22.5012 10.62 18.8875C10.62 15.2737 12.4552 13.5141 13.1949 12.7586C13.8025 12.1385 14.8066 11.8552 15.7699 11.8552C16.0815 11.8552 16.3617 11.8709 16.6135 11.8835C17.3532 11.915 17.7247 11.959 18.2126 13.1269C18.8201 14.5907 20.2996 18.2044 20.4759 18.5758C20.6553 18.9473 20.8348 19.4509 20.5829 19.9389C20.3469 20.4425 20.1391 20.666 19.7676 21.0941C19.3962 21.5222 19.0436 21.8496 18.6722 22.3092C18.3322 22.709 17.9482 23.1371 18.3763 23.8768C18.8044 24.6008 20.2839 27.0152 22.4622 28.9543C25.2733 31.4569 27.5523 32.2564 28.3676 32.5964C28.9751 32.8482 29.6991 32.7884 30.143 32.3162C30.7065 31.7087 31.4021 30.7014 32.1104 29.7098C32.6141 28.9984 33.2499 28.9103 33.9173 29.1621C34.5972 29.3982 38.1952 31.1767 38.935 31.545C39.6747 31.9165 40.1626 32.0927 40.342 32.4044C40.5183 32.716 40.5183 34.1798 39.9108 35.8985Z" fill="#A8A43C"/>
</svg>
